HIERARCHY
ROOT Hips
{
 OFFSET 0.000000 0.000000 0.000000
 CHANNELS 6 Xposition Yposition Zposition Yrotation Xrotation Zrotation
 JOINT Chest
 {
  OFFSET 0.000000 9.857222 0.000240
  CHANNELS 3 Yrotation Xrotation Zrotation
  JOINT Chest2
  {
   OFFSET 0.000000 10.876940 -0.000436
   CHANNELS 3 Yrotation Xrotation Zrotation
   JOINT Chest3
   {
    OFFSET 0.000000 9.827798 0.000000
    CHANNELS 3 Yrotation Xrotation Zrotation
    JOINT Chest4
    {
     OFFSET 0.000000 9.827798 0.000000
     CHANNELS 3 Yrotation Xrotation Zrotation
     JOINT Neck
     {
      OFFSET 0.000000 13.831992 0.000000
      CHANNELS 3 Yrotation Xrotation Zrotation
      JOINT Head
      {
       OFFSET 0.000000 9.147643 -0.001036
       CHANNELS 3 Yrotation Xrotation Zrotation
       End Site
       {
        OFFSET 0.000000 17.515799 -0.000541
       }
      }
     }
     JOINT RightCollar
     {
      OFFSET -3.001579 7.717577 0.000000
      CHANNELS 3 Yrotation Xrotation Zrotation
      JOINT RightShoulder
      {
       OFFSET -14.002642 0.000000 0.000000
       CHANNELS 3 Yrotation Xrotation Zrotation
       JOINT RightElbow
       {
        OFFSET -30.053852 0.000000 0.000000
        CHANNELS 3 Yrotation Xrotation Zrotation
        JOINT RightWrist
        {
         OFFSET -24.564923 0.000000 -0.000000
         CHANNELS 3 Yrotation Xrotation Zrotation
         End Site
         {
          OFFSET -18.334355 0.000000 0.000000
         }
        }
       }
      }
     }
     JOINT LeftCollar
     {
      OFFSET 3.001579 7.717577 0.000000
      CHANNELS 3 Yrotation Xrotation Zrotation
      JOINT LeftShoulder
      {
       OFFSET 14.002642 0.000000 0.000000
       CHANNELS 3 Yrotation Xrotation Zrotation
       JOINT LeftElbow
       {
        OFFSET 30.053852 0.000000 0.000000
        CHANNELS 3 Yrotation Xrotation Zrotation
        JOINT LeftWrist
        {
         OFFSET 24.564923 0.000000 -0.000000
         CHANNELS 3 Yrotation Xrotation Zrotation
         End Site
         {
          OFFSET 18.334355 0.000000 0.000000
         }
        }
       }
      }
     }
    }
   }
  }
 }
 JOINT RightHip
 {
  OFFSET -8.003235 -0.001175 -0.000120
  CHANNELS 3 Yrotation Xrotation Zrotation
  JOINT RightKnee
  {
   OFFSET 0.000000 -41.759727 0.000113
   CHANNELS 3 Yrotation Xrotation Zrotation
   JOINT RightAnkle
   {
    OFFSET 0.000000 -40.728748 0.000159
    CHANNELS 3 Yrotation Xrotation Zrotation
    JOINT RightToe
    {
     OFFSET 0.000000 -6.515296 14.732841
     CHANNELS 3 Yrotation Xrotation Zrotation
     End Site
     {
      OFFSET 0.000000 -1.502839 6.412115
     }
    }
   }
  }
 }
 JOINT LeftHip
 {
  OFFSET 8.003235 -0.001175 -0.000120
  CHANNELS 3 Yrotation Xrotation Zrotation
  JOINT LeftKnee
  {
   OFFSET 0.000000 -41.759727 0.000113
   CHANNELS 3 Yrotation Xrotation Zrotation
   JOINT LeftAnkle
   {
    OFFSET 0.000000 -40.728748 0.000159
    CHANNELS 3 Yrotation Xrotation Zrotation
    JOINT LeftToe
    {
     OFFSET 0.000000 -6.515296 14.732841
     CHANNELS 3 Yrotation Xrotation Zrotation
     End Site
     {
      OFFSET 0.000000 -1.502839 6.412115
     }
    }
   }
  }
 }
}
MOTION
Frames: 10
Frame Time: 0.016667
0.000000 88.822259 0.000000 0.000000 -5.826342 0.000000 0.000000 11.116423 0.000000 0.000000 -5.290081 0.000000 0.000000 0.000000 0.000000 0.000000 0.000000 0.000000 0.000000 12.665069 0.000000 0.000000 0.575450 0.000000 0.000000 0.000000 0.000000 0.000000 0.000000 0.000000 2.337306 0.000000 0.000000 -2.337306 0.000000 0.000000 0.000000 0.000000 0.000000 0.000000 0.000000 0.000000 -2.337306 0.000000 0.000000 2.337306 0.000000 0.000000 0.000000 8.578828 0.000000 0.000000 1.905768 0.000000 0.000000 -4.658254 0.000000 0.000000 0.000000 0.000000 0.000000 8.578828 0.000000 0.000000 1.905768 0.000000 0.000000 -4.658254 0.000000 0.000000 0.000000 0.000000
8.891087 90.454114 12.953695 -32.873118 -8.957353 1.276874 2.052216 -1.085149 0.559988 1.502157 0.148644 0.189380 1.502157 0.148644 0.189380 1.126571 0.111949 0.141671 -4.053578 28.182584 0.080191 -7.220585 16.236043 0.953529 5.292333 26.471572 14.028456 26.462128 -7.200634 67.921916 25.019639 5.314985 5.494701 -2.506512 7.399869 -5.700398 -25.174106 26.363048 -23.039402 -33.864019 26.330695 -72.281026 -52.519899 -10.026654 11.375569 7.818006 -1.507038 7.156788 -12.541865 5.171904 -5.767614 3.782571 7.184682 -1.196035 0.689260 -3.933301 3.212093 -0.202848 0.154843 -0.113876 -28.359891 20.992852 -4.431146 33.922350 -0.871503 -8.968489 3.387711 -9.138063 0.066634 1.424330 0.113953 0.625709
8.884868 90.452929 12.934652 -32.834671 -8.901715 1.259884 2.033236 -1.131266 0.562141 1.499280 0.134804 0.190754 1.499280 0.134804 0.190754 1.124417 0.101572 0.142736 -4.050728 28.183162 0.084949 -7.216467 16.237282 0.961380 5.287308 26.529341 14.012823 26.401975 -7.206181 67.905110 24.984705 5.395191 5.554538 -2.506457 7.399777 -5.706147 -25.189616 26.423345 -23.037103 -33.770148 26.283761 -72.213775 -52.111803 -10.177121 10.985402 7.826116 -1.504575 7.089867 -12.593594 5.108709 -5.736222 3.809141 7.189745 -1.185352 0.688304 -3.924198 3.202065 -0.203742 0.151260 -0.116515 -28.318489 20.942632 -4.365611 33.920363 -0.860116 -8.951763 3.343415 -9.133137 0.047235 1.438991 0.120102 0.631902
8.876555 90.453294 12.921780 -32.829653 -8.895964 1.258638 2.050403 -1.129151 0.559532 1.494785 0.122708 0.191758 1.494785 0.122708 0.191758 1.121050 0.092500 0.143520 -4.049472 28.185639 0.089829 -7.215180 16.242111 0.969668 5.280079 26.593635 13.992485 26.371614 -7.212286 67.869011 24.925623 5.503773 5.625710 -2.510044 7.403575 -5.723587 -25.212553 26.481132 -23.047157 -33.771590 26.261996 -72.183290 -51.712969 -10.316146 10.707260 7.821457 -1.516679 7.043406 -12.610294 5.100598 -5.742814 3.834764 7.197687 -1.172221 0.689990 -3.925905 3.204261 -0.199554 0.146321 -0.116835 -28.236785 20.929444 -4.324564 33.904718 -0.847918 -8.927443 3.326701 -9.117530 0.034792 1.408932 0.121544 0.617923
8.872118 90.454054 12.903909 -32.792023 -8.872111 1.253615 2.042381 -1.156893 0.555042 1.490351 0.109804 0.190485 1.490351 0.109804 0.190485 1.117729 0.082818 0.142597 -4.051913 28.195449 0.096629 -7.220750 16.260806 0.981720 5.270229 26.679052 13.970984 26.375223 -7.226540 67.823490 24.828642 5.667604 5.714825 -2.494520 7.407613 -5.750468 -25.256028 26.559679 -23.066915 -33.854292 26.260653 -72.170759 -51.306748 -10.359972 10.539796 7.795940 -1.571552 7.020681 -12.643512 5.067821 -5.729966 3.854437 7.210175 -1.164317 0.657189 -3.923935 3.201630 -0.199593 0.143316 -0.118455 -28.201198 20.895804 -4.289896 33.908535 -0.839857 -8.898573 3.287412 -9.099192 0.017465 1.406156 0.121096 0.615709
8.865216 90.456542 12.891777 -32.778380 -8.887791 1.256982 2.065259 -1.148595 0.544516 1.485020 0.096657 0.188355 1.485020 0.096657 0.188355 1.113735 0.072951 0.141032 -4.056251 28.211154 0.104322 -7.229790 16.290567 0.995430 5.244034 26.775182 13.941171 26.428105 -7.242734 67.769018 24.702296 5.901285 5.842210 -2.458449 7.406865 -5.781411 -25.324832 26.643782 -23.093578 -33.954095 26.234577 -72.180451 -50.904872 -10.240984 10.485219 7.737741 -1.665022 7.034362 -12.627410 5.080645 -5.733190 3.859632 7.220865 -1.165282 0.635503 -3.922869 3.208552 -0.193750 0.136148 -0.115958 -28.123162 20.896044 -4.273625 33.892764 -0.831668 -8.859535 3.245324 -9.078058 0.010310 1.367833 0.118137 0.596785
8.858750 90.459260 12.871164 -32.739208 -8.890667 1.253769 2.068835 -1.160533 0.532674 1.481605 0.087147 0.184436 1.481605 0.087147 0.184436 1.111178 0.065808 0.138116 -4.063033 28.229273 0.115890 -7.243913 16.325133 1.016374 5.172701 26.876818 13.884081 26.564762 -7.250507 67.721680 24.568837 6.234632 6.005149 -2.367421 7.393652 -5.848479 -25.421208 26.727357 -23.123141 -34.063569 26.188010 -72.183995 -50.547620 -10.016044 10.562145 7.669459 -1.791109 7.059834 -12.617883 5.077323 -5.721426 3.846444 7.234155 -1.166394 0.639349 -3.918286 3.208121 -0.189856 0.127014 -0.115019 -28.092351 20.879174 -4.255335 33.905827 -0.819734 -8.824293 3.225842 -9.056167 -0.009279 1.355032 0.115211 0.590724
8.852449 90.462678 12.853499 -32.710549 -8.899554 1.256259 2.092117 -1.156269 0.510739 1.477167 0.073069 0.178895 1.477167 0.073069 0.178895 1.107854 0.055234 0.133996 -4.071715 28.246783 0.132090 -7.262342 16.358923 1.045941 5.105938 27.001612 13.830246 26.753412 -7.240546 67.652440 24.506132 6.702313 6.200966 -2.254102 7.375133 -5.971337 -25.553279 26.835864 -23.164548 -34.036773 26.079795 -72.026340 -50.311420 -9.901133 10.596884 7.633322 -1.834974 7.086979 -12.599513 5.084124 -5.720740 3.831581 7.239725 -1.166346 0.654572 -3.912778 3.207477 -0.183291 0.118385 -0.110925 -28.067450 20.866197 -4.251462 33.929686 -0.814235 -8.781829 3.201942 -9.029123 -0.018839 1.311056 0.111170 0.570495
8.844706 90.464433 12.840036 -32.694384 -8.911617 1.250720 2.137740 -1.126660 0.494949 1.472713 0.058218 0.171782 1.472713 0.058218 0.171782 1.104519 0.044078 0.128697 -4.082476 28.254709 0.156870 -7.286308 16.375534 1.091637 5.061894 27.140126 13.788484 26.843053 -7.260917 67.496995 24.569324 7.353821 6.634967 -2.127611 7.351892 -6.109932 -25.682625 26.979045 -23.197684 -33.796412 25.810720 -71.736158 -50.096314 -9.657395 10.448843 7.597354 -1.847130 7.119858 -12.573408 5.097219 -5.708523 3.819768 7.247901 -1.162450 0.625455 -3.912144 3.203039 -0.180097 0.113511 -0.107543 -27.945048 20.874592 -4.235165 33.894395 -0.828190 -8.722533 3.178179 -9.010755 -0.035067 1.273947 0.117335 0.553259
8.837547 90.465740 12.835301 -32.689896 -8.945016 1.252391 2.203248 -1.068060 0.473230 1.468249 0.046423 0.162659 1.468249 0.046423 0.162659 1.101175 0.035209 0.121884 -4.098368 28.253946 0.192444 -7.321672 16.376898 1.157952 5.014644 27.345078 13.734519 26.776385 -7.386826 67.197689 24.798821 8.284987 7.485827 -2.001113 7.309715 -6.245527 -25.794109 27.152780 -23.221414 -33.534349 25.496666 -71.416079 -49.962763 -9.211860 10.225035 7.560388 -1.922030 7.149735 -12.539713 5.132865 -5.716456 3.810678 7.253965 -1.156486 0.609723 -3.916325 3.203939 -0.174267 0.110809 -0.103219 -27.761500 20.906416 -4.227774 33.849612 -0.845410 -8.650333 3.126507 -8.991772 -0.047121 1.214369 0.123019 0.525297
